<?xml version="1.0" encoding="UTF-8"?>
<svg id="Layer_2" data-name="Layer 2" xmlns="http://www.w3.org/2000/svg" viewBox="0 0 425.76 425.79">
  <g id="Layer_1-2" data-name="Layer 1">
    <g>
      <path d="m425.76,212.83c.17,117.51-95.38,213.08-212.93,212.97C95.14,425.68-.43,329.99,0,212.71.43,94.86,94.78.51,212.69,0c117.24-.5,212.89,95.04,213.06,212.82Zm-42.73-.15c-.51-94.22-77.26-170.73-170.48-169.93-94.41.81-170.74,77.5-169.8,170.61.95,94.31,76.77,169.89,170.22,169.7,93.97-.19,170.56-76.93,170.06-170.38Z"/>
      <path d="m233.8,319.23h-41.82v-127.24h41.82v127.24Z"/>
      <path d="m233.9,148.81h-42.05v-42.17h42.05v42.17Z"/>
    </g>
  </g>
</svg>